<svg fill="#F25081" xmlns="http://www.w3.org/2000/svg"  viewBox="0 0 50 50" width="500px" height="500px"><path d="M25,20c-4.136,0-7.5,3.364-7.5,7.5S20.864,35,25,35s7.5-3.364,7.5-7.5S29.136,20,25,20z M25,33c-3.032,0-5.5-2.468-5.5-5.5 S21.968,22,25,22s5.5,2.468,5.5,5.5S28.032,33,25,33z"/><circle cx="34" cy="20.5" r="1"/><path d="M36,4H14C8.486,4,4,8.486,4,14v22c0,5.514,4.486,10,10,10h22c5.514,0,10-4.486,10-10V14C46,8.486,41.514,4,36,4z M11,15 c0-0.552,0.448-1,1-1h2c0.552,0,1,0.448,1,1v1h-4V15z M41,35.5c0,0.827-0.673,1.5-1.5,1.5h-29C9.673,37,9,36.327,9,35.5v-16 c0-0.827,0.673-1.5,1.5-1.5h5.367c0.523,0,1.018-0.279,1.287-0.729l1.834-3.058C19.438,13.465,20.26,13,21.133,13h7.734 c0.873,0,1.694,0.465,2.145,1.213l1.834,3.06C33.115,17.721,33.609,18,34.133,18H39.5c0.827,0,1.5,0.673,1.5,1.5V35.5z"/></svg>